<svg width="32" height="32" viewBox="0 0 32 32" fill="none" xmlns="http://www.w3.org/2000/svg">
<path d="M15.0188 7.53476C18.4405 4.45385 23.7119 4.73011 26.7928 8.15181L27.0405 8.42694C28.4499 9.954 29.7068 12.1583 29.6527 14.3321L29.6527 14.3315C29.6351 15.1011 29.4176 15.8877 28.9881 16.584L28.9059 16.7152C28.8606 16.7867 28.7977 16.8848 28.7185 17.0061C28.5603 17.248 28.3357 17.5839 28.0555 17.9829C27.5006 18.7729 26.7012 19.8475 25.7449 20.942C24.8071 22.0153 23.6107 23.2326 22.2478 24.2147C20.9659 25.1385 19.018 26.234 16.6735 26.234C14.3766 26.234 12.4059 25.1755 11.1012 24.3002C9.69402 23.3561 8.41251 22.1779 7.3833 21.1239C6.33573 20.0513 5.44163 18.9955 4.81472 18.2169C4.4986 17.8243 4.24392 17.4942 4.06461 17.257C3.97482 17.1383 3.90354 17.0424 3.85248 16.9731L3.76168 16.8488C2.32119 14.8469 2.7743 12.054 4.77822 10.612C6.78056 9.17118 9.57188 9.62628 11.0135 11.6278L11.014 11.6285L11.0467 11.6731C11.0769 11.7141 11.1257 11.7799 11.1916 11.867C11.3236 12.0415 11.5223 12.2995 11.7745 12.6126C11.9256 12.8003 12.0937 13.005 12.2759 13.2212C12.4046 11.1158 13.3274 9.05766 15.0188 7.53476Z" fill="url(#paint0_linear_7876_44170)"/>
<path fill-rule="evenodd" clip-rule="evenodd" d="M16.3169 9.04793C18.562 7.0264 22.0209 7.20767 24.0424 9.4528L24.3013 9.74033L24.3044 9.74376C25.4787 11.012 26.2005 12.5351 26.1665 13.6574L26.1664 13.6599C26.1601 13.9341 26.083 14.2108 25.9282 14.4619L25.9094 14.4921C25.8988 14.5091 25.8838 14.533 25.8646 14.5632C25.826 14.6242 25.7702 14.7113 25.6987 14.8207C25.5557 15.0395 25.3492 15.3486 25.0897 15.7179C24.5728 16.4538 23.8364 17.4427 22.9661 18.4387C22.1026 19.427 21.0687 20.467 19.9518 21.2718C18.864 22.0557 17.5143 22.7501 16.0535 22.7501C14.6095 22.7501 13.2205 22.0687 12.0783 21.3024C10.899 20.5113 9.77254 19.4852 8.81417 18.5039C7.84915 17.5157 7.01671 16.5336 6.42743 15.8018C6.13184 15.4347 5.89511 15.1277 5.73097 14.9107C5.64885 14.8021 5.58475 14.7158 5.5404 14.6556C5.51821 14.6255 5.50096 14.6019 5.48883 14.5853L5.4685 14.5572C5.32642 14.3333 5.23504 14.174 5.18637 13.8666C5.11436 13.4118 5.22672 12.8309 5.73339 12.3933C6.16365 12.0266 6.72663 11.96 7.09996 12.0533C7.57996 12.16 7.85933 12.4066 8.067 12.6856L8.06747 12.6862L8.06824 12.6873L8.07798 12.7007C8.08659 12.7125 8.10022 12.7312 8.11865 12.7562C8.15553 12.8063 8.21159 12.8817 8.28514 12.979C8.43233 13.1736 8.64901 13.4547 8.92168 13.7933C9.46893 14.4729 10.2325 15.3727 11.1053 16.2664C11.9847 17.1669 12.9378 18.0228 13.8624 18.6431C14.8237 19.288 15.5628 19.5477 16.0535 19.5477C16.4161 19.5477 16.8947 19.4034 17.4769 19.0666L17.8826 18.8319L17.5277 18.5257C17.4156 18.429 17.3083 18.3241 17.2065 18.211L15.912 16.7734C13.8905 14.5283 14.0718 11.0695 16.3169 9.04793ZM22.3879 13.9925C21.92 14.6524 21.2854 15.4953 20.5545 16.3317L20.5377 16.3509L20.3046 16.6171L18.2985 14.6379L18.2919 14.6306C17.4538 13.6998 17.5289 12.2658 18.4597 11.4278C19.3905 10.5897 20.8245 10.6648 21.6626 11.5956L21.9214 11.8831C22.1723 12.1618 22.387 12.4709 22.4936 12.8159C22.6035 13.1715 22.5928 13.5476 22.4206 13.9351L22.4071 13.9654L22.3879 13.9925Z" fill="#B8FF26"/>
<defs>
<linearGradient id="paint0_linear_7876_44170" x1="29.6544" y1="5.39331" x2="9.44372" y2="31.3196" gradientUnits="userSpaceOnUse">
<stop stop-color="#10121A"/>
<stop offset="1" stop-color="#0C090D"/>
</linearGradient>
</defs>
</svg>
